<?xml version="1.0" encoding="utf-8"?>
<!-- Generator: Adobe Illustrator 22.1.0, SVG Export Plug-In . SVG Version: 6.00 Build 0)  -->
<!DOCTYPE svg PUBLIC "-//W3C//DTD SVG 1.1//EN" "http://www.w3.org/Graphics/SVG/1.1/DTD/svg11.dtd">
<svg version="1.1" xmlns="http://www.w3.org/2000/svg" xmlns:xlink="http://www.w3.org/1999/xlink" x="0px" y="0px"
	 viewBox="0 0 75 75" style="enable-background:new 0 0 75 75;" xml:space="preserve">
<style type="text/css">
	.st0{fill:#FFFFFF;}
</style>
<g id="vacuum">
</g>
<g id="window">
</g>
<g id="trash">
</g>
<g id="bathroom">
	<g>
		<path class="st0" d="M67.3,18.9H28.4c-5.6,0-10.6,3.6-12.4,8.9l-3.8,11.5h47.5v-5.2H25.9c0-4.6,3.4-9.8,8.4-9.8h32.9
			c1.5,0,2.7-1.2,2.7-2.7S68.8,18.9,67.3,18.9z"/>
		<path class="st0" d="M59.7,41.8H10.9l-0.1,0.4L5,55c-0.2,0.4,0.3,0.7,0.6,0.5l6.1-5.2c0.3-0.3,0.7,0,0.6,0.4l-1.5,4.7
			c-0.1,0.4,0.4,0.7,0.7,0.4l5.6-5.8c0.3-0.3,0.7,0,0.7,0.3l-0.7,5.4c0,0.4,0.4,0.6,0.7,0.3l5.7-6.1c0.3-0.3,0.7-0.1,0.7,0.3
			l-0.4,5.4c0,0.4,0.5,0.6,0.7,0.2l3-5.7c0.2-0.4,0.7-0.2,0.7,0.2l0.1,5.2c0,0.4,0.6,0.5,0.8,0.1l2.3-5.9c0.3-0.8,1.5-0.7,1.7,0.1
			l1.2,5.9c0.1,0.4,0.6,0.4,0.7,0.1l4.1-8.6c0.2-0.4,0.8-0.3,0.8,0.2l0.4,7.9c0,0.4,0.6,0.5,0.8,0.1l2.3-5.6
			c0.5-1.2,2.3-1.2,2.7,0.1l1.7,5.6c0.1,0.4,0.6,0.4,0.7,0l1.7-5.5c0.4-1.3,2.3-1.4,2.8-0.1l1.4,3.7c0.1,0.4,0.7,0.3,0.8-0.1
			l0.1-2.8c0.1-2.1,2.7-3,4-1.3l3.6,4.6c0.3,0.3,0.8,0.1,0.7-0.4l-3.7-11.4V41.8z"/>
	</g>
</g>
<g id="dusting">
</g>
<g id="mopping">
</g>
<g id="kitchen">
</g>
<g id="restocking">
</g>
</svg>
