<?xml version="1.0" encoding="utf-8"?>
<!-- Generator: Adobe Illustrator 22.1.0, SVG Export Plug-In . SVG Version: 6.00 Build 0)  -->
<!DOCTYPE svg PUBLIC "-//W3C//DTD SVG 1.1//EN" "http://www.w3.org/Graphics/SVG/1.1/DTD/svg11.dtd">
<svg version="1.1" xmlns="http://www.w3.org/2000/svg" xmlns:xlink="http://www.w3.org/1999/xlink" x="0px" y="0px"
	 viewBox="0 0 75 75" style="enable-background:new 0 0 75 75;" xml:space="preserve">
<style type="text/css">
	.st0{fill:#FFFFFF;}
</style>
<g id="vacuum">
</g>
<g id="window">
</g>
<g id="trash">
</g>
<g id="bathroom">
</g>
<g id="dusting">
	<g>
		<path class="st0" d="M58.1,51.3H20.4c0,0-0.3,8.4-4,11.3c4.3,2.7,8.2-1.9,9.7-3.6c1.5-1.6,1.4,0.8,1.4,1.3c0,0.5-1.8,5-3.9,5.6
			c3.8,0.4,6.8-1.6,8.6-4.7c1.4,3.9-1.3,8.2-2.2,8.6c8.7,1.9,14.4-7.1,15-8.4c0.5,1.8,0,4-2.5,7.1c4.6,0.4,7.9-5,9-6.6
			c0.7,1.7-0.6,4.1-1.4,4.5c5.3,1.3,8.9-3.6,8.7-7.6C58.4,55.5,58.1,51.3,58.1,51.3z"/>
		<path class="st0" d="M55.9,43.1c-0.2-1.3-0.8-2.5-1.6-3.3l-8.8-9.4c-1.3-1.4-2.1-3.5-2.1-5.6V9.9h0c0-2.7-1.9-4.9-4.2-4.9
			c-2.3,0-4.2,2.2-4.2,4.9h0v14.8c0,2.1-0.8,4.2-2.1,5.6l-8.8,9.4c-0.8,0.9-1.4,2.1-1.6,3.3l-1,4.1h35.3L55.9,43.1z"/>
	</g>
</g>
<g id="mopping">
</g>
<g id="kitchen">
</g>
<g id="restocking">
</g>
</svg>
