<?xml version="1.0" encoding="utf-8"?>
<!-- Generator: Adobe Illustrator 22.1.0, SVG Export Plug-In . SVG Version: 6.00 Build 0)  -->
<!DOCTYPE svg PUBLIC "-//W3C//DTD SVG 1.1//EN" "http://www.w3.org/Graphics/SVG/1.1/DTD/svg11.dtd">
<svg version="1.1" xmlns="http://www.w3.org/2000/svg" xmlns:xlink="http://www.w3.org/1999/xlink" x="0px" y="0px"
	 viewBox="0 0 75 75" style="enable-background:new 0 0 75 75;" xml:space="preserve">
<style type="text/css">
	.st0{fill:#FFFFFF;}
</style>
<g id="vacuum">
</g>
<g id="window">
</g>
<g id="trash">
</g>
<g id="bathroom">
</g>
<g id="dusting">
</g>
<g id="mopping">
</g>
<g id="kitchen">
	<g>
		<path class="st0" d="M66.1,24.6c-3.8-7.2-10.3-13.5-18.9-19c-1.6-1-3.6-0.6-4.8,0.8c-8.3,10-18.9,18.6-31.7,25.9
			c-1.6,0.9-2.3,2.8-1.6,4.5c3.9,9.3,10.3,16,19.5,19.9c1.5,0.6,3.2,0.2,4.2-1c8.4-10,19-18.7,31.9-26.3
			C66.4,28.4,67,26.3,66.1,24.6z M22.4,35.1c-1.2,0-2.1-1-2.1-2.1c0-1.2,1-2.1,2.1-2.1s2.1,1,2.1,2.1C24.5,34.2,23.6,35.1,22.4,35.1
			z M30.4,48.1c-2.1,0-3.7-1.7-3.7-3.7c0-2.1,1.7-3.7,3.7-3.7s3.7,1.7,3.7,3.7C34.1,46.4,32.5,48.1,30.4,48.1z M34,27.9
			c-0.6,0-1.1-0.5-1.1-1.1c0-0.6,0.5-1.1,1.1-1.1s1.1,0.5,1.1,1.1C35.1,27.4,34.6,27.9,34,27.9z M43.6,33.7c-1.6,0-2.9-1.3-2.9-2.9
			c0-1.6,1.3-2.9,2.9-2.9c1.6,0,2.9,1.3,2.9,2.9C46.5,32.5,45.2,33.7,43.6,33.7z M45.4,19c-1,0-1.9-0.8-1.9-1.9c0-1,0.8-1.9,1.9-1.9
			c1,0,1.9,0.8,1.9,1.9C47.2,18.2,46.4,19,45.4,19z M57.9,27.5c-1.4,0-2.5-1.1-2.5-2.5s1.1-2.5,2.5-2.5c1.4,0,2.5,1.1,2.5,2.5
			S59.2,27.5,57.9,27.5z"/>
		<path class="st0" d="M65.8,31.7C54,38.7,44,47,36.3,56.2c-1.6,1.9-3.9,3-6.3,3c-1.1,0-2.2-0.2-3.2-0.6c-7.4-3.1-13.3-8-17.7-14.5
			c-0.2-0.2-0.5-0.1-0.5,0.2v4.5c0,0.3,0.1,0.6,0.2,0.9c3.9,9.4,10.4,16.2,19.7,20.1c1.5,0.6,3.2,0.2,4.3-1
			C41.2,58.6,52,49.7,65,42.1c0.7-0.4,1.2-1,1.5-1.6v-8.4C66.5,31.7,66.1,31.5,65.8,31.7z M13.2,54.3c-0.7,0-1.2-0.6-1.2-1.2
			c0-0.7,0.6-1.2,1.2-1.2c0.7,0,1.2,0.6,1.2,1.2C14.4,53.7,13.8,54.3,13.2,54.3z M22.9,65.2c-1.5,0-2.7-1.2-2.7-2.7
			c0-1.5,1.2-2.7,2.7-2.7c1.5,0,2.7,1.2,2.7,2.7C25.6,64,24.4,65.2,22.9,65.2z M35.4,63.5c-0.8,0-1.4-0.6-1.4-1.4
			c0-0.8,0.6-1.4,1.4-1.4c0.8,0,1.4,0.6,1.4,1.4C36.8,62.9,36.1,63.5,35.4,63.5z M46,52.3c-0.8,0-1.5-0.7-1.5-1.5
			c0-0.8,0.7-1.5,1.5-1.5s1.5,0.7,1.5,1.5C47.5,51.6,46.8,52.3,46,52.3z M60.9,39.8c-0.8,0-1.5-0.7-1.5-1.5c0-0.8,0.7-1.5,1.5-1.5
			c0.8,0,1.5,0.7,1.5,1.5C62.4,39.1,61.7,39.8,60.9,39.8z"/>
	</g>
</g>
<g id="restocking">
</g>
</svg>
