<?xml version="1.0" encoding="utf-8"?>
<!-- Generator: Adobe Illustrator 22.1.0, SVG Export Plug-In . SVG Version: 6.00 Build 0)  -->
<!DOCTYPE svg PUBLIC "-//W3C//DTD SVG 1.1//EN" "http://www.w3.org/Graphics/SVG/1.1/DTD/svg11.dtd">
<svg version="1.1" xmlns="http://www.w3.org/2000/svg" xmlns:xlink="http://www.w3.org/1999/xlink" x="0px" y="0px"
	 viewBox="0 0 75 75" style="enable-background:new 0 0 75 75;" xml:space="preserve">
<style type="text/css">
	.st0{fill:#FFFFFF;}
</style>
<g id="vacuum">
</g>
<g id="window">
</g>
<g id="trash">
</g>
<g id="bathroom">
</g>
<g id="dusting">
</g>
<g id="mopping">
	<g>
		<g>
			<path class="st0" d="M32.5,41.6c-0.2,0-0.4,0-0.6-0.1c-1.2-0.4-1.8-1.6-1.5-2.7L41.7,2.1c0.4-1.2,1.6-1.8,2.7-1.5
				c1.2,0.4,1.8,1.6,1.5,2.7L34.6,40C34.3,41,33.5,41.6,32.5,41.6z"/>
			<path class="st0" d="M32.3,47.9c-0.2,0-0.4,0-0.6-0.1l-3.5-1.1c-1.2-0.4-1.8-1.6-1.4-2.7c0.4-1.2,1.6-1.8,2.7-1.4l3.5,1.1
				c1.2,0.4,1.8,1.6,1.4,2.7C34.1,47.3,33.2,47.9,32.3,47.9z"/>
		</g>
		<path class="st0" d="M46.1,67.7c3.6,0.4,6.4,2.4,8.2,4.7c1.2-0.5,1.2-1.9-0.6-4.1c-3.7-4.4-7.3-6-12.6-5.2
			c-5.2-5.4-3.6-14.2-7.3-14.2c-5.6,0-5,8.6-4.4,14.6C26.7,57.5,27,51.8,29,48.9c-4.2,1.4-4.3,5.4-4.5,8.6c-1.1-5.6-0.5-8,1.3-10.5
			c-12.6,6.2-9.8,27.6,2.4,27.6c12.1,0,13.5-5.2,19.5-2.9c1.1,0.4,2.2,0.7,3.1,0.9C50.1,71.1,48.7,69.1,46.1,67.7z"/>
	</g>
</g>
<g id="kitchen">
</g>
<g id="restocking">
</g>
</svg>
