<?xml version="1.0" encoding="utf-8"?>
<!-- Generator: Adobe Illustrator 22.1.0, SVG Export Plug-In . SVG Version: 6.00 Build 0)  -->
<!DOCTYPE svg PUBLIC "-//W3C//DTD SVG 1.1//EN" "http://www.w3.org/Graphics/SVG/1.1/DTD/svg11.dtd">
<svg version="1.1" xmlns="http://www.w3.org/2000/svg" xmlns:xlink="http://www.w3.org/1999/xlink" x="0px" y="0px"
	 viewBox="0 0 75 75" style="enable-background:new 0 0 75 75;" xml:space="preserve">
<style type="text/css">
	.st0{fill:#FFFFFF;}
</style>
<g id="vacuum">
</g>
<g id="window">
</g>
<g id="trash">
</g>
<g id="bathroom">
</g>
<g id="dusting">
</g>
<g id="mopping">
</g>
<g id="kitchen">
</g>
<g id="restocking">
	<g>
		<path class="st0" d="M17.6,7.5c-5.3,0-9.7,7.4-9.7,16.6c0,9.2,4.3,16.6,9.7,16.6s9.7-7.4,9.7-16.6C27.2,14.9,22.9,7.5,17.6,7.5z
			 M17.6,29.5c-1.7,0-3.1-2.4-3.1-5.4c0-3,1.4-5.4,3.1-5.4c1.7,0,3.1,2.4,3.1,5.4C20.7,27.1,19.3,29.5,17.6,29.5z"/>
		<path class="st0" d="M55.9,7.5H25.3c3,4.2,4.8,10.1,4.8,16.6c0,6.5-1.9,12.4-4.8,16.6h30.6c6.2,0,11.2-7.4,11.2-16.6
			C67.1,14.9,62.1,7.5,55.9,7.5z"/>
		<rect x="25.3" y="43.2" class="st0" width="35.4" height="24.3"/>
	</g>
</g>
</svg>
