<?xml version="1.0" encoding="utf-8"?>
<!-- Generator: Adobe Illustrator 22.1.0, SVG Export Plug-In . SVG Version: 6.00 Build 0)  -->
<!DOCTYPE svg PUBLIC "-//W3C//DTD SVG 1.1//EN" "http://www.w3.org/Graphics/SVG/1.1/DTD/svg11.dtd">
<svg version="1.1" xmlns="http://www.w3.org/2000/svg" xmlns:xlink="http://www.w3.org/1999/xlink" x="0px" y="0px"
	 viewBox="0 0 75 75" style="enable-background:new 0 0 75 75;" xml:space="preserve">
<style type="text/css">
	.st0{fill:#FFFFFF;}
</style>
<g id="vacuum">
</g>
<g id="window">
</g>
<g id="trash">
	<g>
		<path class="st0" d="M57.2,13.7c-2.6-0.7-6.5-1.3-11-1.6v-3c0-2.2-1.8-4.1-4.1-4.1h-9.1c-2.2,0-4.1,1.8-4.1,4.1v3
			c-4.6,0.3-8.4,0.9-11,1.6c-0.9,0.3-0.9,1.6,0,1.8c4.1,1.2,11.4,1.9,19.7,1.9s15.5-0.8,19.7-1.9C58.1,15.3,58.1,14,57.2,13.7z
			 M31.5,9.1c0-0.8,0.6-1.4,1.4-1.4h9.1c0.8,0,1.4,0.6,1.4,1.4v2.8c-1.9-0.1-3.9-0.1-6-0.1c-2.1,0-4.1,0-6,0.1V9.1z"/>
		<path class="st0" d="M56.2,18.4c-4.2,1-11,1.7-18.7,1.7c-7.7,0-14.5-0.7-18.7-1.7c-0.7-0.2-1.3,0.4-1.2,1.1l4.1,42.7
			c0.3,3.1,2.5,5.7,5.6,6.5l2.7,0.7c1.6,0.4,3.2,0.6,4.8,0.6h5.2c1.6,0,3.3-0.2,4.8-0.6l2.7-0.7c3-0.8,5.3-3.4,5.6-6.5l4.1-42.7
			C57.5,18.8,56.9,18.2,56.2,18.4z M28.6,65.2c-0.1,0-0.1,0-0.2,0c-1,0-1.9-0.8-2-1.8l-2.8-35.6c-0.1-1.1,0.7-2.1,1.8-2.2
			c1.1-0.1,2.1,0.7,2.2,1.8l2.8,35.6C30.5,64.2,29.7,65.2,28.6,65.2z M39.7,63.3c0,1.1-0.9,2-2,2c-1.1,0-2-0.9-2-2V27.6
			c0-1.1,0.9-2,2-2c1.1,0,2,0.9,2,2V63.3z M49,63.4c-0.1,1.1-1,1.8-2,1.8c-0.1,0-0.1,0-0.2,0c-1.1-0.1-1.9-1.1-1.8-2.2l2.8-35.6
			c0.1-1.1,1.1-1.9,2.2-1.8c1.1,0.1,1.9,1.1,1.8,2.2L49,63.4z"/>
	</g>
</g>
<g id="bathroom">
</g>
<g id="dusting">
</g>
<g id="mopping">
</g>
<g id="kitchen">
</g>
<g id="restocking">
</g>
</svg>
