<?xml version="1.0" encoding="utf-8"?>
<!-- Generator: Adobe Illustrator 22.1.0, SVG Export Plug-In . SVG Version: 6.00 Build 0)  -->
<!DOCTYPE svg PUBLIC "-//W3C//DTD SVG 1.1//EN" "http://www.w3.org/Graphics/SVG/1.1/DTD/svg11.dtd">
<svg version="1.1" xmlns="http://www.w3.org/2000/svg" xmlns:xlink="http://www.w3.org/1999/xlink" x="0px" y="0px"
	 viewBox="0 0 75 75" style="enable-background:new 0 0 75 75;" xml:space="preserve">
<style type="text/css">
	.st0{fill:#FFFFFF;}
</style>
<g id="vacuum">
	<g>
		<path class="st0" d="M31.5,60.7c-1-3.2-3.9-5.4-7.2-5.4h-1.1l-0.8-2.2h-8.9l-0.8,2.2h-1.1c-3.3,0-6.3,2.2-7.2,5.4l-0.9,3.1h28.9
			L31.5,60.7z"/>
		<path class="st0" d="M63.7,36L44,40.7c-5.9,1.4-10.1,6.8-10.1,13v3.9c0,3.4,2.8,6.2,6.2,6.2h13.3c-0.8-1.4-1.3-3.1-1.3-4.8
			c0-5.2,4.2-9.5,9.4-9.5s9.4,4.3,9.4,9.5c0,0.9-0.1,1.7-0.3,2.5c0.6-0.9,1-1.9,1-3.1V42.2C71.5,38.1,67.7,35,63.7,36z"/>
		<ellipse class="st0" cx="61.5" cy="59" rx="6.8" ry="6.8"/>
		<g>
			<polygon class="st0" points="20.2,19.5 16.3,50.9 19.9,50.9 24,19.5 			"/>
			<path class="st0" d="M33.9,5.2c-3.8,0-9.1,2-12.9,11.4h4c2.3-5,5.3-7.7,8.9-7.7c4.9,0,6.8,9.7,10.3,29.7l3.6-0.6
				C43.9,16.1,42,5.2,33.9,5.2z"/>
		</g>
	</g>
</g>
<g id="window">
</g>
<g id="trash">
</g>
<g id="bathroom">
</g>
<g id="dusting">
</g>
<g id="mopping">
</g>
<g id="kitchen">
</g>
<g id="restocking">
</g>
</svg>
