<?xml version="1.0" encoding="utf-8"?>
<!-- Generator: Adobe Illustrator 22.1.0, SVG Export Plug-In . SVG Version: 6.00 Build 0)  -->
<!DOCTYPE svg PUBLIC "-//W3C//DTD SVG 1.1//EN" "http://www.w3.org/Graphics/SVG/1.1/DTD/svg11.dtd">
<svg version="1.1" xmlns="http://www.w3.org/2000/svg" xmlns:xlink="http://www.w3.org/1999/xlink" x="0px" y="0px"
	 viewBox="0 0 75 75" style="enable-background:new 0 0 75 75;" xml:space="preserve">
<style type="text/css">
	.st0{fill:#FFFFFF;}
</style>
<g id="vacuum">
</g>
<g id="window">
	<g>
		<path class="st0" d="M54,37l-7-2.6L64.5,13c1-1.2,0.8-3-0.4-4v0c-1.2-1-3-0.8-4,0.4L41.4,32.4l-4.7-1.7c-1.3-0.5-2.8-0.2-3.8,0.7
			L27.6,36c-1.2,1-0.8,2.9,0.6,3.4l17.6,6.5c1.1,0.4,2.3,0.2,3.2-0.6l5.6-4.9C55.8,39.4,55.4,37.6,54,37z"/>
		<g>
			<path class="st0" d="M37.3,29.3l3.6,1.3l1-1.2l2.9-10.1l-22.7,0.1l-6,14.6h11.5l4.3-3.8C33.4,29,35.5,28.6,37.3,29.3z"/>
		</g>
		<g>
			<path class="st0" d="M13.5,54.1c-0.4,0.4,10.3-12.3,12.4-14.8c-0.2-0.4-0.4-0.7-0.5-1.1c-0.1-0.4-0.1-0.9,0-1.3H15L5,61.1
				L32.7,61l4.8-16.6L28.2,41C26.2,42.8,13.9,53.7,13.5,54.1z"/>
			<g>
				<path class="st0" d="M56.8,38.3c0.2,1.2-0.2,2.5-1.1,3.3L50,46.4c-0.9,0.8-2,1.2-3.1,1.2c-0.6,0-1.1-0.1-1.6-0.3l-5.1-1.9
					L35.7,61l25.8-0.1l4.9-24.1H56.1C56.4,37.3,56.7,37.8,56.8,38.3z"/>
				<g>
					<polygon class="st0" points="47.8,19.3 46.5,23.8 50.2,19.3 					"/>
					<polygon class="st0" points="70,19.2 61.4,19.3 49.5,33.8 50.2,34 67,34 					"/>
				</g>
			</g>
		</g>
	</g>
</g>
<g id="trash">
</g>
<g id="bathroom">
</g>
<g id="dusting">
</g>
<g id="mopping">
</g>
<g id="kitchen">
</g>
<g id="restocking">
</g>
</svg>
